<svg width="640" height="480" xmlns="http://www.w3.org/2000/svg">
 <!-- Created with SVG-edit - http://svg-edit.googlecode.com/ -->
 <g>
  <title>Layer 1</title>
  <path fill="#FF0000" stroke="#000000" stroke-width="5" stroke-linejoin="null" stroke-linecap="null" d="m362.067505,195.534058l90,0m-1.094879,75.972778l86.476898,84.86261m-86.479828,-85.670746l-80.821411,85.670746m80.419189,-186.697632l0,101.026917m26.864624,-128.311127c0,14.838242 -12.026428,26.867142 -26.864624,26.867142c-14.838257,0 -26.867584,-12.0289 -26.867584,-26.867142c0,-14.838219 12.029358,-26.867615 26.867584,-26.867615c14.838226,0 26.864624,12.029396 26.864624,26.867615z" id="svg_8"/>
  <line id="svg_9" y2="254" x2="530" y1="195" x1="451" stroke-linecap="null" stroke-linejoin="null" stroke-width="5" stroke="#000000" fill="none"/>
  <path id="svg_11" fill="#FF0000" stroke="#000000" stroke-width="5" stroke-linejoin="null" stroke-linecap="null" d="m104.067505,196.534058l90,0m-1.094879,75.972778l86.476929,84.86261m-86.479858,-85.670746l-80.821411,85.670746m80.419189,-186.697632l0,101.026917m26.864624,-128.311127c0,14.838242 -12.026428,26.867142 -26.864624,26.867142c-14.838257,0 -26.867584,-12.0289 -26.867584,-26.867142c0,-14.838226 12.029358,-26.867615 26.867584,-26.867615c14.838226,0 26.864624,12.029388 26.864624,26.867615z"/>
 </g>
</svg>